<svg width="2190" height="2190" viewBox="0 0 2190 2190" fill="none" xmlns="http://www.w3.org/2000/svg">
<g clip-path="url(#clip0_27_2)">
<path d="M1086.22 0H0.0554199L228.576 226.077H1086.22C1318.47 226.077 1541.19 317.602 1705.41 480.516C1869.63 643.434 1961.89 864.399 1961.89 1094.79C1961.89 1325.19 1869.63 1546.16 1705.41 1709.07C1541.19 1871.98 1318.47 1963.52 1086.22 1963.52H550.834L759.917 1756.39H1086.37C1263.19 1756.39 1432.77 1686.71 1557.79 1562.67C1682.84 1438.63 1753.08 1270.4 1753.08 1094.98C1753.08 919.562 1682.84 751.332 1557.79 627.296C1432.77 503.256 1263.19 433.573 1086.37 433.573H437.266L958.682 950.482H1086.22C1124.79 950.482 1161.77 965.678 1189.04 992.73C1216.3 1019.78 1231.62 1056.47 1231.62 1094.72C1231.62 1132.97 1216.3 1169.67 1189.04 1196.71C1161.77 1223.77 1124.79 1238.96 1086.22 1238.96H959.072L725.613 1470.67H1086.22C1135.95 1470.67 1185.2 1460.95 1231.14 1442.07C1277.09 1423.19 1318.83 1395.51 1354 1360.63C1389.16 1325.74 1417.06 1284.33 1436.09 1238.75C1455.12 1193.17 1464.92 1144.32 1464.92 1094.98C1464.92 1045.64 1455.12 996.791 1436.09 951.214C1417.06 905.632 1389.16 864.215 1354 829.332C1318.83 794.445 1277.09 766.774 1231.14 747.894C1185.2 729.014 1135.95 719.298 1086.22 719.298H1047.93L993.286 664.997H994.704L1086.22 664.759C1201.23 664.759 1311.53 710.081 1392.85 790.76C1474.18 871.436 1519.86 980.86 1519.86 1094.96C1519.86 1209.05 1474.18 1318.47 1392.85 1399.15C1311.53 1479.83 1201.23 1525.15 1086.22 1525.15H670.414L0.29794 2190H1086.22C1378.96 2190 1659.72 2074.63 1866.72 1869.27C2073.72 1663.92 2190 1385.39 2190 1094.98C2190 804.565 2073.72 526.04 1866.72 320.686C1659.72 115.33 1378.96 0 1086.22 0Z" fill="white"/>
<path d="M792.246 1094.89L0 308.951V1880.99L792.246 1094.89Z" fill="white"/>
</g>
<defs>
<clipPath id="clip0_27_2">
<rect width="2190" height="2190" fill="white"/>
</clipPath>
</defs>
</svg>
