<svg width="512" height="512" viewBox="0 0 512 512" fill="none" xmlns="http://www.w3.org/2000/svg">
<rect width="512" height="512" fill="#121212"/>
<g clip-path="url(#clip0_82_2)">
<path d="M280.141 91H112.009L147.383 124.963H280.141C316.091 124.963 350.568 138.713 375.989 163.187C401.409 187.662 415.691 220.857 415.691 255.469C415.691 290.081 401.409 323.277 375.989 347.751C350.568 372.225 316.091 385.976 280.141 385.976H197.266L229.631 354.859H280.165C307.536 354.859 333.785 344.391 353.138 325.757C372.494 307.123 383.368 281.85 383.368 255.497C383.368 229.144 372.494 203.871 353.138 185.238C333.785 166.603 307.536 156.135 280.165 156.135H179.687L260.399 233.789H280.141C286.111 233.789 291.836 236.072 296.056 240.136C300.277 244.199 302.648 249.711 302.648 255.458C302.648 261.205 300.277 266.717 296.056 270.78C291.836 274.844 286.111 277.127 280.141 277.127H260.459L224.321 311.936H280.141C287.84 311.936 295.462 310.475 302.574 307.639C309.687 304.803 316.148 300.646 321.592 295.405C327.035 290.164 331.353 283.942 334.299 277.095C337.245 270.248 338.761 262.909 338.761 255.497C338.761 248.085 337.245 240.746 334.299 233.899C331.353 227.052 327.035 220.83 321.592 215.589C316.148 210.348 309.687 206.191 302.574 203.355C295.462 200.519 287.84 199.059 280.141 199.059H274.214L265.755 190.901H265.975L280.141 190.866C297.945 190.866 315.018 197.674 327.606 209.795C340.194 221.914 347.266 238.353 347.266 255.493C347.266 272.633 340.194 289.071 327.606 301.191C315.018 313.312 297.945 320.121 280.141 320.121H215.777L112.046 420H280.141C325.456 420 368.916 402.668 400.958 371.818C433.001 340.967 451 299.126 451 255.497C451 211.868 433.001 170.026 400.958 139.176C368.916 108.326 325.456 91 280.141 91Z" fill="white"/>
<path d="M234.635 255.484L112 137.413V373.578L234.635 255.484Z" fill="white"/>
</g>
<defs>
<clipPath id="clip0_82_2">
<rect width="339" height="329" fill="white" transform="translate(112 91)"/>
</clipPath>
</defs>
</svg>
