<?xml version="1.0" standalone="no"?>
<!DOCTYPE svg PUBLIC "-//W3C//DTD SVG 20010904//EN"
 "http://www.w3.org/TR/2001/REC-SVG-20010904/DTD/svg10.dtd">
<svg version="1.0" xmlns="http://www.w3.org/2000/svg"
 width="700.000000pt" height="700.000000pt" viewBox="0 0 700.000000 700.000000"
 preserveAspectRatio="xMidYMid meet">
<metadata>
Created by potrace 1.14, written by Peter Selinger 2001-2017
</metadata>
<g transform="translate(0.000000,700.000000) scale(0.100000,-0.100000)"
fill="#000000" stroke="none">
<path d="M10 6996 c0 -3 64 -69 143 -146 78 -78 240 -238 359 -357 l217 -216
1493 -3 c821 -1 1504 -4 1518 -7 14 -3 50 -8 80 -12 72 -8 220 -34 243 -41 11
-3 29 -7 40 -9 102 -16 356 -101 516 -173 205 -91 387 -200 566 -336 114 -87
135 -106 280 -251 303 -302 520 -653 663 -1070 41 -119 84 -287 97 -382 3 -21
8 -43 10 -50 2 -6 7 -36 10 -65 3 -29 10 -87 15 -128 10 -94 10 -401 -1 -500
-16 -143 -21 -179 -55 -355 -11 -58 -70 -254 -105 -350 -59 -159 -185 -411
-276 -550 -204 -309 -459 -569 -774 -788 -53 -37 -99 -67 -102 -67 -3 0 -34
-18 -69 -39 -262 -159 -667 -301 -983 -345 -19 -3 -50 -7 -170 -22 -62 -8
-1955 -12 -1955 -5 0 3 148 152 330 331 l329 325 578 1 c509 1 629 4 733 18
14 2 50 7 80 11 98 13 322 75 440 122 185 73 392 190 516 292 18 14 47 37 65
51 60 45 225 213 295 300 303 379 463 829 466 1310 1 119 -8 236 -23 325 -6
33 -12 69 -14 80 -5 34 -35 157 -54 220 -51 163 -173 428 -237 512 -13 17 -24
34 -24 38 0 3 -4 11 -10 18 -5 7 -42 55 -82 107 -131 173 -392 410 -551 499
-23 13 -53 31 -67 41 -40 27 -207 106 -305 144 -126 48 -312 97 -425 112 -25
3 -52 7 -60 9 -57 15 -301 18 -1245 20 -588 0 -1077 -1 -1085 -3 -10 -2 21
-40 90 -108 349 -349 1544 -1530 1553 -1535 7 -4 109 -7 227 -7 237 0 298 -7
386 -49 74 -34 173 -130 208 -200 117 -235 23 -513 -209 -624 -88 -42 -144
-49 -389 -49 l-221 0 -373 -371 -372 -370 667 4 668 3 100 27 c245 65 416 163
585 335 379 387 450 982 173 1442 -174 289 -450 488 -773 560 -105 23 -157 28
-286 29 l-102 1 -86 84 c-47 46 -86 85 -86 87 0 7 393 2 455 -5 349 -42 689
-226 901 -488 32 -40 67 -82 77 -92 9 -11 17 -24 17 -30 0 -5 6 -17 14 -25 26
-29 102 -185 134 -272 83 -233 100 -500 48 -747 -86 -402 -361 -753 -735 -942
-112 -56 -276 -109 -386 -124 -22 -3 -58 -9 -80 -13 -22 -3 -365 -7 -762 -7
l-723 -1 -23 -25 c-24 -25 -1839 -1827 -2023 -2008 l-94 -93 1887 4 c1039 1
1897 6 1908 9 11 3 49 9 85 13 109 12 121 14 230 34 159 30 158 30 260 57
1162 307 2068 1154 2455 2294 17 52 33 98 33 103 1 4 2 8 3 10 0 1 2 9 4 17 1
9 12 49 23 90 42 157 84 392 100 570 14 152 4 690 -13 720 -1 3 -6 32 -10 65
-3 32 -8 62 -10 65 -1 3 -6 27 -9 54 -4 27 -14 79 -22 115 -8 36 -17 77 -20
91 -2 14 -19 75 -36 135 -210 751 -687 1430 -1323 1887 -357 256 -776 452
-1193 558 -108 27 -266 60 -322 66 -25 3 -52 7 -60 9 -8 2 -46 7 -85 11 -38 3
-79 9 -90 12 -25 7 -3785 15 -3785 8z"/>
<path d="M0 3500 l0 -2515 24 25 c22 24 1513 1504 2193 2178 l316 313 -340
337 c-542 536 -2122 2103 -2159 2142 l-34 35 0 -2515z"/>
</g>
</svg>
